<svg version="1.1" xmlns="http://www.w3.org/2000/svg" xmlns:xlink="http://www.w3.org/1999/xlink" x="0px" y="0px" width="500px" height="500px" viewBox="0 0 500 500" enable-background="new 0 0 500 500" xml:space="preserve">

<style>
    
body {
  display: flex;
  justify-content: center;
}

.sheep {
	height:500px;
	animation-name: bounce;
	animation-duration: 1s;
	animation-iteration-count: infinite;
}

.shadow {
	animation-name: scale;
	animation-duration: 1s;
	animation-iteration-count: infinite;
  animation-play-state: running;
  animation-timing-function: ease-in-out;
  /*edited: changed transform-origin from 50% 50% to center to match the 'ground'*/      
  transform-origin:center;
}
/*edited: adjusted the % and gave it ease-in-out*/  
@keyframes bounce {
	30% {
    animation-timing-function: ease-in-out;
		transform:translateY(-100px);
	}
}

/*edited: scale changed from 0.7 to 0.9*/
@keyframes scale {
  30% {
    transform: scale(0.9);
  }
  60% {
    transform: scale(1);
    
  }
}
</style>

    <ellipse class="shadow" xmlns="http://www.w3.org/2000/svg" fill="#DADADA" cx="257.023" cy="374.06" rx="164.49" ry="45.018"/>
    
    <g class="sheep">
    <g id="FEETS">
        <g id="FEETS_1_">
            <g>
                <path d="M200.54,379.908c0.021-0.135,0.027-0.272,0.046-0.41c0.636-5.443-1.028-13.239-2.854-21.113     c-2.74-11.833-3.926-23.211-6.988-23.98c-1.657-2.592-13.251,3.606-14.586,3.606c-4.066,0-7.061,9.985-7.061,22.392     c0,9.507,1.544,22.548,13.066,27.94c6.783,3.177,14.746,2.409,16.885-2.278c0.046-0.103,0.074-0.207,0.117-0.311     c0.332-0.675,0.537-1.413,0.676-2.172C200.126,382.539,200.363,381.311,200.54,379.908z"/>
            </g>
            <g>
                <path d="M291.327,350.582c-0.674-3.991-0.396-8.76-1.973-10.852c-2.317-10.328-8.349-17.898-15.136-17.152     c-6.806,0.748-12.507,8.266-12.501,18.887c-1.044,3.162-0.911,2.814-0.911,6.651c0,5.065,1.254,14.762,2.99,18.524     c1.91,8.702,6.916,15.002,12.873,15.426c1.551,0.688,3.167,0.998,4.803,0.818c6.082-0.668,9.95-7.309,10.824-16.365     C293.147,362.73,292.415,357.039,291.327,350.582z"/>
            </g>
            <g>
                <path d="M251.199,358.145c-0.049-1.593-0.231-3.384-0.557-5.267c-0.32-1.854-0.744-3.573-1.222-5.062     c-1.644-6.967-6.238-11.895-11.32-11.522c-5.993,0.431-10.376,8.054-9.788,17.024c0.207,3.174,1.015,6.088,2.231,8.511     c0.367,0.78,0.846,1.579,1.427,2.356c0.945,1.303,2.028,2.377,3.206,3.153c1.913,1.358,4.195,2.222,6.641,2.006     c0.033-0.003,0.063-0.01,0.098-0.014c0.046,0.004,0.088,0.014,0.134,0.014c1.537,0,2.969-0.413,4.239-1.112     c1.362-0.635,2.384-1.519,3.008-2.639c0.404-0.544,0.77-1.115,1.062-1.74c0.26-0.39,0.462-0.973,0.607-1.722     c0.208-0.813,0.354-1.646,0.354-2.524C251.319,359.105,251.273,358.622,251.199,358.145z"/>
            </g>
            <g>
                <path d="M357.31,345.499c0.247-0.767,0.406-1.567,0.479-2.396c0.773-4.889,0.747-11.949-0.283-17.475     c-0.104-0.559-0.217-1.113-0.339-1.656c-2.893-13.084-10.442-22.451-17.299-21.174c-6.442,1.201-10.054,11.406-8.793,23.625     c-0.874,2.193-1.604,4.74-2.094,7.499c-0.297,1.671-0.484,3.3-0.572,4.847c-0.19,3.404,0.107,6.422,0.812,8.641     c0.399,2.303,1.643,4.295,3.395,5.693c1.933,2.145,6.891,2.937,12.313,1.737c4.207-0.932,7.245-2.416,9.446-4.715     c1.316-1.235,2.328-2.791,2.907-4.543c0.008-0.019,0.018-0.032,0.023-0.05C357.31,345.521,357.306,345.51,357.31,345.499z"/>
            </g>
        </g>
    </g>
    <g id="TAIL">
        <g id="TAIL_1_">
            <path fill="#969696" d="M347.138,183.403c2.691,2.51,6.449,3.939,10.414,3.939c8.155,0,14.767-6.612,14.767-14.767    c0-1.699-0.286-3.331-0.813-4.85l-0.005-0.002c1.597-2.274,2.574-5.008,2.688-7.971c7.604-0.601,13.587-6.961,13.587-14.72    c0-8.156-6.61-14.768-14.767-14.768c0-8.156-6.611-14.768-14.769-14.768c-1.526,0-3.001,0.232-4.386,0.662    c-3.384-3.406-8.071-5.518-13.253-5.518c-5.14,0-9.794,2.077-13.172,5.436c-1.293-0.37-2.655-0.58-4.066-0.58    c-8.156,0-14.769,6.612-14.769,14.768c0,0.925,0.098,1.828,0.26,2.707c-0.087-0.002-0.171-0.013-0.26-0.013    c-3.731,0-7.068,1.695-9.283,4.357c-1.833-0.817-3.856-1.279-5.994-1.279c-8.155,0-14.767,6.611-14.767,14.768    c0,2.828,0.796,5.469,2.174,7.715c8.958,1.609,16.979,5.902,23.197,12.033c3.446-0.862,7.054-1.326,10.767-1.326    c12.788,0,24.303,5.434,32.379,14.107"/>
            <path d="M357.552,188.247c-4.159,0-8.182-1.524-11.03-4.182l1.233-1.323c2.519,2.349,6.09,3.696,9.797,3.696    c7.644,0,13.861-6.219,13.861-13.863c0-1.415-0.21-2.804-0.627-4.136l-0.721-0.24l0.692-0.995    c1.549-2.206,2.422-4.795,2.523-7.486l0.031-0.804l0.802-0.063c7.151-0.564,12.754-6.635,12.754-13.819    c0-7.644-6.219-13.863-13.861-13.863h-0.904v-0.904c0-7.644-6.219-13.864-13.863-13.864c-1.403,0-2.789,0.209-4.117,0.622    l-0.521,0.163l-0.387-0.389c-3.364-3.386-7.845-5.251-12.612-5.251c-4.729,0-9.179,1.837-12.534,5.172l-0.377,0.375l-0.51-0.146    c-1.266-0.361-2.549-0.545-3.817-0.545c-7.646,0-13.864,6.22-13.864,13.864c0,0.82,0.079,1.652,0.244,2.542l0.203,1.091    l-1.108-0.022l-0.228-0.859l-0.016,0.003v0.843c-3.325,0-6.455,1.469-8.587,4.031l-0.438,0.526l-0.625-0.279    c-1.789-0.796-3.683-1.201-5.627-1.201c-7.645,0-13.861,6.219-13.861,13.863c0,2.429,0.634,4.805,1.836,6.9    c8.648,1.635,16.551,5.724,22.901,11.851c3.437-0.819,6.963-1.234,10.495-1.234c12.479,0,24.521,5.248,33.041,14.396l-1.324,1.232    c-8.178-8.782-19.739-13.819-31.717-13.819c-3.554,0-7.104,0.437-10.548,1.299l-0.493,0.124l-0.36-0.357    c-6.252-6.164-14.107-10.239-22.724-11.787l-0.396-0.072l-0.212-0.346c-1.511-2.46-2.309-5.292-2.309-8.188    c0-8.642,7.029-15.672,15.671-15.672c1.978,0,3.907,0.369,5.743,1.098c2.278-2.467,5.398-3.948,8.741-4.151    c-0.074-0.617-0.111-1.216-0.111-1.813c0-8.642,7.031-15.672,15.673-15.672c1.268,0,2.544,0.161,3.805,0.478    c3.65-3.443,8.4-5.333,13.435-5.333c5.074,0,9.85,1.916,13.508,5.406c1.342-0.366,2.729-0.55,4.131-0.55    c8.347,0,15.189,6.559,15.646,14.792c8.233,0.458,14.792,7.301,14.792,15.647c0,7.857-5.93,14.536-13.638,15.54    c-0.229,2.603-1.099,5.1-2.542,7.286c0.48,1.519,0.724,3.104,0.724,4.717C373.223,181.216,366.193,188.247,357.552,188.247z"/>
        </g>
        <g id="EYES1_1_">
            <g>
                <g>
                    <circle cx="168.677" cy="249.426" r="17.435"/>
                </g>
                <g>
                    <g>
                        <circle fill="#FFFFFF" cx="169.782" cy="241.271" r="4.44"/>
                    </g>
                    <g>
                        <circle fill="#FFFFFF" cx="160.909" cy="242.358" r="2.252"/>
                    </g>
                    <g>
                        <circle fill="#FFFFFF" cx="164.426" cy="246.929" r="1.161"/>
                    </g>
                </g>
            </g>
            <g>
                <g>
                    <circle cx="244.452" cy="248.525" r="17.435"/>
                </g>
                <g>
                    <g>
                        <ellipse fill="#FFFFFF" cx="248.737" cy="240.273" rx="4.286" ry="4.533"/>
                    </g>
                    <g>
                        <ellipse fill="#FFFFFF" cx="238.652" cy="239.365" rx="2.186" ry="2.304"/>
                    </g>
                    <g>
                        <ellipse fill="#FFFFFF" cx="241.539" cy="244.823" rx="1.041" ry="1.145"/>
                    </g>
                </g>
            </g>
        </g>
    </g>
    <g id="BODY">
        <path fill="#FFFFFF" d="M365.259,301.327c-0.527,20.78-17.499,37.475-38.407,37.475c-5.413,0-10.557-1.13-15.229-3.147   c-4.354,3.625-9.95,5.812-16.062,5.812c-2.145,0-4.218-0.297-6.205-0.802c-3.788,2.293-8.216,3.635-12.969,3.635   c-4.502,0-8.718-1.197-12.37-3.273c-5.817,3.049-12.435,4.779-19.457,4.779c-3.617,0-7.128-0.455-10.479-1.318   c-5.118,2.615-10.899,4.119-17.042,4.119c-8.248,0-15.851-2.688-22.045-7.198c-6.194,4.511-13.798,7.198-22.046,7.198   c-16.733,0-30.898-10.953-35.751-26.08c-14.854-7.904-24.97-23.535-24.97-41.539c0-10.934,3.741-20.982,9.997-28.973   c-2.799-4.788-4.43-10.34-4.43-16.288c0-12.047,6.597-22.536,16.359-28.108c5.102-9.55,15.157-16.055,26.738-16.055   c4.989,0,9.685,1.228,13.834,3.364c3.013-9.645,10.725-17.197,20.447-20.029c4.565-10.951,15.368-18.652,27.971-18.652   c4.571,0,8.892,1.041,12.776,2.854c3.401-0.838,6.954-1.291,10.615-1.291c4.585,0,9.005,0.698,13.166,1.992   c4.156-1.294,8.579-1.992,13.162-1.992c12.105,0,23.071,4.867,31.06,12.744c3.446-0.862,7.054-1.326,10.767-1.326   c20.634,0,37.967,14.125,42.863,33.23c11.934,7.926,19.804,21.483,19.804,36.878c0,3.152-0.335,6.225-0.964,9.192   c2.798,5.804,4.366,12.311,4.366,19.184C380.758,281.168,374.74,293.213,365.259,301.327c0.009-0.329,0.05-0.65,0.05-0.981   L365.259,301.327z"/>
        <g>
            <g>
                <path fill="none" stroke="#000000" stroke-miterlimit="10" d="M214.367,278.84"/>
            </g>
            <path fill="#3299CC" d="M222.494,270.848c-0.075,2.111-1.148,2.939-1.732,5.229c-2.521,9.878,7.886,6.879,10.097,10.173    c2.891,4.305-0.526,5.952-4.37,4.52c-8.501-3.168-8.597,0.226-5.878,2.488c2.533,2.109,8.206,11.805,4.146,13.112    c-4.671,1.507-5.426-6.202-8.29-7.386c-5.782-2.391,1.706,9.566,2.487,13.939c0.753,4.221-2.035,6.555-4.295,6.328    c-2.261-0.227-3.392-2.561-3.542-4.747c-0.151-2.261,0.678-4.596,0.603-7.009c-0.151-2.107-0.754-4.145-2.035-5.952    c-0.452-0.754-1.055-1.508-1.583-2.187c0,0,5.643-2.193,7.161-8.777c1.279-5.544-0.271-9.838-0.857-11.62    C214.405,278.96,220.512,277.254,222.494,270.848"/>
            <path d="M231.405,285.795c-0.902-1.344-2.739-1.768-4.685-2.215c-2.051-0.473-4.173-0.962-5.128-2.527    c-0.682-1.119-0.744-2.716-0.191-4.885c0.148-0.578,0.795-2.044,1.261-3.385c0.886-1.784,1.386-3.793,1.386-5.922h-1.81    c0,6.428-5.228,11.656-11.652,11.656c-2.016,0-4.011-0.531-5.771-1.535l-0.358-0.207l-0.392,0.138    c-2.49,0.881-5.123,0.896-7.62,0.053l-0.38-0.129l-0.351,0.196c-1.588,0.889-3.871,1.484-5.68,1.484    c-6.427,0-11.655-5.229-11.655-11.656h-1.809c0,5.986,3.948,11.016,9.359,12.761c-0.127,0.444-0.241,0.901-0.347,1.45    c-0.856,4.391-0.028,8.838,2.331,12.523c2.368,3.7,5.992,6.188,10.207,7.012c1.579,0.308,3.113,0.463,4.562,0.463    c1.955,0,3.722-0.279,5.298-0.81c0.397,0.515,0.793,1.04,1.13,1.599c1.115,1.574,1.759,3.463,1.91,5.582    c0.034,1.11-0.139,2.242-0.308,3.34c-0.187,1.205-0.377,2.457-0.294,3.693c0.171,2.485,1.521,5.112,4.15,5.375    c0.122,0.014,0.246,0.021,0.371,0.021c1.269,0,2.563-0.642,3.462-1.714c1.152-1.377,1.578-3.303,1.199-5.426    c-0.269-1.508-1.236-3.738-2.261-6.1c-1.06-2.441-2.833-6.531-2.318-7.314c0.096-0.145,0.465-0.071,1.166,0.219    c0.891,0.367,1.656,1.76,2.397,3.105c1.167,2.121,2.49,4.525,4.999,4.525c0.436,0,0.893-0.077,1.359-0.229    c0.982-0.315,1.61-1.045,1.816-2.108c0.699-3.611-3.715-10.485-5.736-12.169c-1.005-0.836-1.456-1.748-1.312-2.146    c0.098-0.271,0.595-0.432,1.331-0.432c0.842,0,2.426,0.217,5.188,1.246c2.629,0.98,5.211,0.55,6.052-1.025    C232.719,289.49,232.918,288.049,231.405,285.795z M231.087,289.664c-0.495,0.93-2.433,1.119-4.381,0.393    c-2.371-0.884-4.276-1.332-5.663-1.332c-1.757,0-2.388,0.722-2.606,1.326c-0.381,1.051,0.278,2.449,1.721,3.65    c1.996,1.662,5.81,8.091,5.271,10.869c-0.111,0.578-0.389,0.91-0.9,1.076c-2.266,0.724-3.542-1.459-4.754-3.66    c-0.893-1.623-1.736-3.156-3.068-3.707c-1.621-0.672-2.511-0.182-2.817,0.289c-0.854,1.304,0.264,4.119,2.208,8.601    c0.949,2.187,1.929,4.447,2.17,5.796c0.307,1.723-0.013,3.256-0.903,4.318c-0.701,0.841-1.712,1.3-2.656,1.217    c-1.844-0.184-2.802-2.202-2.934-4.118c-0.071-1.085,0.101-2.208,0.282-3.396c0.177-1.157,0.361-2.353,0.321-3.613    c-0.171-2.398-0.898-4.518-2.129-6.253c-0.283-0.472-0.622-0.937-0.958-1.382c3.599-1.669,5.975-4.871,6.863-9.43    c0.647-3.316,0.367-7.257-0.707-10.935c1.689-0.659,3.211-1.652,4.493-2.89c-0.468,2.222-0.31,3.953,0.494,5.272    c1.25,2.054,3.764,2.634,5.982,3.144c1.676,0.387,3.258,0.752,3.861,1.649C231.165,287.873,231.452,288.979,231.087,289.664z"/>
            <path fill="#E63620" d="M187.637,280.2c-0.102,0.366-0.189,0.75-0.278,1.217c-0.768,3.933-0.028,7.912,2.078,11.204    c2.099,3.279,5.306,5.484,9.029,6.21c1.465,0.286,2.883,0.433,4.216,0.433c4.508,0,10.196-1.613,11.693-9.301    c0.575-2.947,0.352-6.604-0.59-9.933c-0.721,0.14-1.841,0.297-3.199,0.297c-2.193,0-4.365-0.544-6.308-1.577    c-2.632,0.844-5.398,0.855-8.034,0.051c-1.825,0.936-4.217,1.526-6.209,1.526C189.008,280.327,188.19,280.264,187.637,280.2z"/>
            <g>
                <path d="M201.214,286.807h-1.809c0-2.924,0.301-5.798,0.894-8.546l1.768,0.382C201.501,281.266,201.214,284.012,201.214,286.807z     "/>
            </g>
        </g>
        <path d="M289.578,339.787l-0.367-0.096l-0.324,0.197c-7.388,4.471-16.971,4.582-24.425,0.348l-0.429-0.243l-0.438,0.228   c-8.901,4.668-19.627,5.868-29.281,3.391l-0.009-0.002c-6.076-1.56-11.811-4.565-16.585-8.691l-0.592,0.684l-0.591,0.684   c4.371,3.777,9.514,6.656,14.99,8.404c-4.601,2-9.463,3.011-14.488,3.011c-7.762,0-15.2-2.431-21.514-7.026l-0.532-0.387   l-0.532,0.387c-6.312,4.596-13.751,7.026-21.514,7.026c-15.98,0-29.997-10.222-34.885-25.438l-0.005-0.015   c-1.165-3.633-1.756-7.4-1.756-11.197h-1.809c0,3.242,0.409,6.461,1.221,9.602c-13.984-8.305-22.583-23.31-22.583-39.668   c0-10.397,3.39-20.223,9.804-28.416l0.376-0.483l-0.308-0.53c-2.817-4.815-4.307-10.29-4.307-15.83   c0-10.229,5.032-19.808,13.314-25.673c-1.526,3.736-2.323,7.764-2.323,11.811h1.81c0-4.809,1.194-9.588,3.454-13.821   c5.132-9.607,15.071-15.576,25.94-15.576c4.449,0,8.734,0.984,12.75,2.928c-0.795,2.784-1.198,5.665-1.198,8.579h0.905h0.904   c0-2.988,0.449-5.941,1.336-8.777l0.006-0.021c2.758-8.801,9.435-15.725,18.057-18.834c-1.137,3.278-1.713,6.702-1.713,10.203   h0.906h0.903c0-3.905,0.759-7.707,2.258-11.299l0.001,0c4.583-10.993,15.235-18.097,27.137-18.097c4.286,0,8.456,0.932,12.395,2.77   l0.286,0.136l0.313-0.078c7.695-1.895,15.829-1.638,23.295,0.687l0.267,0.084l0.27-0.083c4.16-1.296,8.498-1.952,12.895-1.952   c11.457,0,22.262,4.433,30.422,12.483l0.362,0.357l0.494-0.124c3.445-0.862,6.994-1.299,10.548-1.299   c19.809,0,37.075,13.385,41.987,32.55l0.085,0.336l0.292,0.194c12.146,8.067,19.398,21.572,19.398,36.125   c0,2.146-0.16,4.298-0.479,6.425c-4.379-7.84-11.096-14.305-19.148-18.37l-0.408,0.807l-0.407,0.807   c8.499,4.29,15.446,11.363,19.568,19.915l-0.001,0c2.837,5.887,4.276,12.209,4.276,18.791c0,12.521-5.404,24.391-14.842,32.637   l-0.63,0.488c-0.01,0.156-0.021,0.311-0.026,0.469h-0.001c-0.521,20.521-16.994,36.594-37.503,36.594   c-4.662,0-9.21-0.849-13.539-2.526c5.274-4.922,8.271-11.775,8.271-19.022h-0.903h-0.905c0,7.203-2.756,13.629-8.305,18.254   l-0.428,0.357c-4.337,3.613-9.837,5.602-15.481,5.602C293.61,340.561,291.599,340.301,289.578,339.787z M234.186,345.443   c9.839,2.447,20.707,1.24,29.815-3.396c7.836,4.259,17.757,4.115,25.498-0.42c2.043,0.49,4.081,0.739,6.062,0.739   c5.883,0,11.616-2.01,16.21-5.67c4.804,1.994,9.875,3.007,15.081,3.007c21.364,0,38.551-16.64,39.3-37.955   c9.863-8.591,15.511-20.976,15.511-34.042c0-6.753-1.454-13.244-4.323-19.298c0.612-2.985,0.922-6.038,0.922-9.078   c0-15.043-7.441-29.013-19.921-37.438c-5.229-19.786-23.129-33.574-43.65-33.574c-3.532,0-7.059,0.415-10.495,1.234   c-8.458-8.162-19.563-12.651-31.33-12.651c-4.485,0-8.911,0.657-13.162,1.951c-7.603-2.313-15.857-2.579-23.688-0.708   c-4.094-1.862-8.422-2.806-12.869-2.806c-12.491,0-23.684,7.369-28.637,18.813c-9.531,2.916-17.04,10.139-20.313,19.501   c-4.194-1.988-8.664-2.996-13.303-2.996c-11.451,0-21.931,6.24-27.412,16.304c-10.239,5.951-16.591,16.949-16.591,28.764   c0,5.658,1.467,11.249,4.249,16.212c-6.423,8.414-9.815,18.444-9.815,29.047c0,17.64,9.617,33.761,25.128,42.166   c5.225,15.781,19.847,26.358,36.497,26.358c7.932,0,15.539-2.415,22.046-6.991c6.508,4.574,14.116,6.991,22.045,6.991   C223.026,349.509,228.793,348.143,234.186,345.443z"/>
    </g>
    <g id="EYES">
        <g id="EYES1_2_">
            <g>
                <g>
                    <circle cx="168.677" cy="249.426" r="17.435"/>
                </g>
                <g>
                    <g>
                        <circle fill="#FFFFFF" cx="169.782" cy="241.271" r="4.44"/>
                    </g>
                    <g>
                        <circle fill="#FFFFFF" cx="160.909" cy="242.358" r="2.252"/>
                    </g>
                    <g>
                        <circle fill="#FFFFFF" cx="164.426" cy="246.929" r="1.161"/>
                    </g>
                </g>
            </g>
            <g>
                <g>
                    <circle cx="244.452" cy="248.525" r="17.435"/>
                </g>
                <g>
                    <g>
                        <ellipse fill="#FFFFFF" cx="248.737" cy="240.273" rx="4.286" ry="4.533"/>
                    </g>
                    <g>
                        <ellipse fill="#FFFFFF" cx="238.652" cy="239.365" rx="2.186" ry="2.304"/>
                    </g>
                    <g>
                        <ellipse fill="#FFFFFF" cx="241.539" cy="244.823" rx="1.041" ry="1.145"/>
                    </g>
                </g>
            </g>
        </g>
    </g>
    </g>
</svg>

